<?xml version="1.0" encoding="utf-8" standalone="no"?>
<!DOCTYPE svg PUBLIC "-//W3C//DTD SVG 1.1//EN"
  "http://www.w3.org/Graphics/SVG/1.1/DTD/svg11.dtd">
<svg height="323.71845pt" version="1.1" viewBox="0 0 446.4 323.71845" width="446.4pt" xmlns="http://www.w3.org/2000/svg" xmlns:xlink="http://www.w3.org/1999/xlink">
 <metadata>
  <rdf:RDF xmlns:cc="http://creativecommons.org/ns#" xmlns:dc="http://purl.org/dc/elements/1.1/" xmlns:rdf="http://www.w3.org/1999/02/22-rdf-syntax-ns#">
   <cc:Work>
    <dc:type rdf:resource="http://purl.org/dc/dcmitype/StillImage"/>
    <dc:date>2021-11-28T15:44:42.359395</dc:date>
    <dc:format>image/svg+xml</dc:format>
    <dc:creator>
     <cc:Agent>
      <dc:title>Matplotlib v3.4.3, https://matplotlib.org/</dc:title>
     </cc:Agent>
    </dc:creator>
   </cc:Work>
  </rdf:RDF>
 </metadata>
 <defs>
  <style type="text/css">*{stroke-linecap:butt;stroke-linejoin:round;}</style>
 </defs>
 <g id="figure_1">
  <g id="patch_1">
   <path d="M 0 323.71845 
L 446.4 323.71845 
L 446.4 0 
L 0 0 
z
" style="fill:#f0f0f0;"/>
  </g>
  <g id="axes_1">
   <g id="LineCollection_1">
    <path clip-path="url(#paa8fa20519)" d="M 401.712397 172.518446 
L 398.672884 150.557053 
" style="fill:none;stroke:#000000;"/>
    <path clip-path="url(#paa8fa20519)" d="M 401.712397 172.518446 
L 389.657852 129.343526 
" style="fill:none;stroke:#000000;"/>
    <path clip-path="url(#paa8fa20519)" d="M 401.712397 172.518446 
L 374.974293 109.600272 
" style="fill:none;stroke:#000000;"/>
    <path clip-path="url(#paa8fa20519)" d="M 401.712397 172.518446 
L 355.122251 91.999621 
" style="fill:none;stroke:#000000;"/>
    <path clip-path="url(#paa8fa20519)" d="M 401.712397 172.518446 
L 330.777759 77.140941 
" style="fill:none;stroke:#000000;"/>
    <path clip-path="url(#paa8fa20519)" d="M 401.712397 172.518446 
L 302.76982 65.530224 
" style="fill:none;stroke:#000000;"/>
    <path clip-path="url(#paa8fa20519)" d="M 401.712397 172.518446 
L 272.052235 57.562864 
" style="fill:none;stroke:#000000;"/>
    <path clip-path="url(#paa8fa20519)" d="M 401.712397 172.518446 
L 239.671048 53.510186 
" style="fill:none;stroke:#000000;"/>
    <path clip-path="url(#paa8fa20519)" d="M 401.712397 172.518446 
L 174.34777 57.562864 
" style="fill:none;stroke:#000000;"/>
    <path clip-path="url(#paa8fa20519)" d="M 401.712397 172.518446 
L 143.630185 65.530224 
" style="fill:none;stroke:#000000;"/>
    <path clip-path="url(#paa8fa20519)" d="M 401.712397 172.518446 
L 115.622241 77.140941 
" style="fill:none;stroke:#000000;"/>
    <path clip-path="url(#paa8fa20519)" d="M 401.712397 172.518446 
L 91.27776 91.999614 
" style="fill:none;stroke:#000000;"/>
    <path clip-path="url(#paa8fa20519)" d="M 401.712397 172.518446 
L 44.687603 172.518457 
" style="fill:none;stroke:#000000;"/>
    <path clip-path="url(#paa8fa20519)" d="M 401.712397 172.518446 
L 56.742148 215.693374 
" style="fill:none;stroke:#000000;"/>
    <path clip-path="url(#paa8fa20519)" d="M 401.712397 172.518446 
L 91.277749 253.037279 
" style="fill:none;stroke:#000000;"/>
    <path clip-path="url(#paa8fa20519)" d="M 401.712397 172.518446 
L 374.974282 235.436635 
" style="fill:none;stroke:#000000;"/>
    <path clip-path="url(#paa8fa20519)" d="M 398.672884 150.557053 
L 389.657852 129.343526 
" style="fill:none;stroke:#000000;"/>
    <path clip-path="url(#paa8fa20519)" d="M 398.672884 150.557053 
L 374.974293 109.600272 
" style="fill:none;stroke:#000000;"/>
    <path clip-path="url(#paa8fa20519)" d="M 398.672884 150.557053 
L 272.052235 57.562864 
" style="fill:none;stroke:#000000;"/>
    <path clip-path="url(#paa8fa20519)" d="M 398.672884 150.557053 
L 91.27776 91.999614 
" style="fill:none;stroke:#000000;"/>
    <path clip-path="url(#paa8fa20519)" d="M 398.672884 150.557053 
L 44.687603 172.518457 
" style="fill:none;stroke:#000000;"/>
    <path clip-path="url(#paa8fa20519)" d="M 398.672884 150.557053 
L 56.742148 215.693374 
" style="fill:none;stroke:#000000;"/>
    <path clip-path="url(#paa8fa20519)" d="M 398.672884 150.557053 
L 91.277749 253.037279 
" style="fill:none;stroke:#000000;"/>
    <path clip-path="url(#paa8fa20519)" d="M 398.672884 150.557053 
L 355.122229 253.037293 
" style="fill:none;stroke:#000000;"/>
    <path clip-path="url(#paa8fa20519)" d="M 389.657852 129.343526 
L 374.974293 109.600272 
" style="fill:none;stroke:#000000;"/>
    <path clip-path="url(#paa8fa20519)" d="M 389.657852 129.343526 
L 272.052235 57.562864 
" style="fill:none;stroke:#000000;"/>
    <path clip-path="url(#paa8fa20519)" d="M 389.657852 129.343526 
L 239.671048 53.510186 
" style="fill:none;stroke:#000000;"/>
    <path clip-path="url(#paa8fa20519)" d="M 389.657852 129.343526 
L 206.728959 53.510186 
" style="fill:none;stroke:#000000;"/>
    <path clip-path="url(#paa8fa20519)" d="M 389.657852 129.343526 
L 91.27776 91.999614 
" style="fill:none;stroke:#000000;"/>
    <path clip-path="url(#paa8fa20519)" d="M 389.657852 129.343526 
L 272.052225 287.474029 
" style="fill:none;stroke:#000000;"/>
    <path clip-path="url(#paa8fa20519)" d="M 389.657852 129.343526 
L 302.769826 279.506669 
" style="fill:none;stroke:#000000;"/>
    <path clip-path="url(#paa8fa20519)" d="M 389.657852 129.343526 
L 389.657852 215.69337 
" style="fill:none;stroke:#000000;"/>
    <path clip-path="url(#paa8fa20519)" d="M 374.974293 109.600272 
L 272.052235 57.562864 
" style="fill:none;stroke:#000000;"/>
    <path clip-path="url(#paa8fa20519)" d="M 374.974293 109.600272 
L 115.622241 77.140941 
" style="fill:none;stroke:#000000;"/>
    <path clip-path="url(#paa8fa20519)" d="M 374.974293 109.600272 
L 91.27776 91.999614 
" style="fill:none;stroke:#000000;"/>
    <path clip-path="url(#paa8fa20519)" d="M 355.122251 91.999621 
L 302.76982 65.530224 
" style="fill:none;stroke:#000000;"/>
    <path clip-path="url(#paa8fa20519)" d="M 355.122251 91.999621 
L 174.34777 57.562864 
" style="fill:none;stroke:#000000;"/>
    <path clip-path="url(#paa8fa20519)" d="M 330.777759 77.140941 
L 302.76982 65.530224 
" style="fill:none;stroke:#000000;"/>
    <path clip-path="url(#paa8fa20519)" d="M 330.777759 77.140941 
L 174.34777 57.562864 
" style="fill:none;stroke:#000000;"/>
    <path clip-path="url(#paa8fa20519)" d="M 330.777759 77.140941 
L 47.727116 150.557051 
" style="fill:none;stroke:#000000;"/>
    <path clip-path="url(#paa8fa20519)" d="M 302.76982 65.530224 
L 47.727116 150.557051 
" style="fill:none;stroke:#000000;"/>
    <path clip-path="url(#paa8fa20519)" d="M 239.671048 53.510186 
L 355.122229 253.037293 
" style="fill:none;stroke:#000000;"/>
    <path clip-path="url(#paa8fa20519)" d="M 239.671048 53.510186 
L 389.657852 215.69337 
" style="fill:none;stroke:#000000;"/>
    <path clip-path="url(#paa8fa20519)" d="M 239.671048 53.510186 
L 398.672884 194.479833 
" style="fill:none;stroke:#000000;"/>
    <path clip-path="url(#paa8fa20519)" d="M 206.728959 53.510186 
L 398.672884 194.479833 
" style="fill:none;stroke:#000000;"/>
    <path clip-path="url(#paa8fa20519)" d="M 91.27776 91.999614 
L 398.672884 194.479833 
" style="fill:none;stroke:#000000;"/>
    <path clip-path="url(#paa8fa20519)" d="M 71.425696 109.600272 
L 389.657852 215.69337 
" style="fill:none;stroke:#000000;"/>
    <path clip-path="url(#paa8fa20519)" d="M 71.425696 109.600272 
L 398.672884 194.479833 
" style="fill:none;stroke:#000000;"/>
    <path clip-path="url(#paa8fa20519)" d="M 56.742158 129.343512 
L 389.657852 215.69337 
" style="fill:none;stroke:#000000;"/>
    <path clip-path="url(#paa8fa20519)" d="M 56.742158 129.343512 
L 398.672884 194.479833 
" style="fill:none;stroke:#000000;"/>
    <path clip-path="url(#paa8fa20519)" d="M 47.727116 194.479835 
L 389.657852 215.69337 
" style="fill:none;stroke:#000000;"/>
    <path clip-path="url(#paa8fa20519)" d="M 47.727116 194.479835 
L 398.672884 194.479833 
" style="fill:none;stroke:#000000;"/>
    <path clip-path="url(#paa8fa20519)" d="M 56.742148 215.693374 
L 398.672884 194.479833 
" style="fill:none;stroke:#000000;"/>
    <path clip-path="url(#paa8fa20519)" d="M 71.425696 235.436614 
L 389.657852 215.69337 
" style="fill:none;stroke:#000000;"/>
    <path clip-path="url(#paa8fa20519)" d="M 71.425696 235.436614 
L 398.672884 194.479833 
" style="fill:none;stroke:#000000;"/>
    <path clip-path="url(#paa8fa20519)" d="M 115.62223 267.895945 
L 389.657852 215.69337 
" style="fill:none;stroke:#000000;"/>
    <path clip-path="url(#paa8fa20519)" d="M 115.62223 267.895945 
L 398.672884 194.479833 
" style="fill:none;stroke:#000000;"/>
    <path clip-path="url(#paa8fa20519)" d="M 143.630174 279.506669 
L 206.728989 291.526714 
" style="fill:none;stroke:#000000;"/>
    <path clip-path="url(#paa8fa20519)" d="M 143.630174 279.506669 
L 272.052225 287.474029 
" style="fill:none;stroke:#000000;"/>
    <path clip-path="url(#paa8fa20519)" d="M 143.630174 279.506669 
L 330.77777 267.895945 
" style="fill:none;stroke:#000000;"/>
    <path clip-path="url(#paa8fa20519)" d="M 143.630174 279.506669 
L 389.657852 215.69337 
" style="fill:none;stroke:#000000;"/>
    <path clip-path="url(#paa8fa20519)" d="M 143.630174 279.506669 
L 398.672884 194.479833 
" style="fill:none;stroke:#000000;"/>
    <path clip-path="url(#paa8fa20519)" d="M 174.347781 287.474029 
L 206.728989 291.526714 
" style="fill:none;stroke:#000000;"/>
    <path clip-path="url(#paa8fa20519)" d="M 174.347781 287.474029 
L 272.052225 287.474029 
" style="fill:none;stroke:#000000;"/>
    <path clip-path="url(#paa8fa20519)" d="M 174.347781 287.474029 
L 374.974282 235.436635 
" style="fill:none;stroke:#000000;"/>
    <path clip-path="url(#paa8fa20519)" d="M 206.728989 291.526714 
L 374.974282 235.436635 
" style="fill:none;stroke:#000000;"/>
    <path clip-path="url(#paa8fa20519)" d="M 239.671015 291.526714 
L 330.77777 267.895945 
" style="fill:none;stroke:#000000;"/>
    <path clip-path="url(#paa8fa20519)" d="M 239.671015 291.526714 
L 398.672884 194.479833 
" style="fill:none;stroke:#000000;"/>
    <path clip-path="url(#paa8fa20519)" d="M 272.052225 287.474029 
L 398.672884 194.479833 
" style="fill:none;stroke:#000000;"/>
    <path clip-path="url(#paa8fa20519)" d="M 302.769826 279.506669 
L 374.974282 235.436635 
" style="fill:none;stroke:#000000;"/>
    <path clip-path="url(#paa8fa20519)" d="M 302.769826 279.506669 
L 398.672884 194.479833 
" style="fill:none;stroke:#000000;"/>
    <path clip-path="url(#paa8fa20519)" d="M 330.77777 267.895945 
L 389.657852 215.69337 
" style="fill:none;stroke:#000000;"/>
    <path clip-path="url(#paa8fa20519)" d="M 330.77777 267.895945 
L 398.672884 194.479833 
" style="fill:none;stroke:#000000;"/>
    <path clip-path="url(#paa8fa20519)" d="M 355.122229 253.037293 
L 389.657852 215.69337 
" style="fill:none;stroke:#000000;"/>
    <path clip-path="url(#paa8fa20519)" d="M 355.122229 253.037293 
L 398.672884 194.479833 
" style="fill:none;stroke:#000000;"/>
    <path clip-path="url(#paa8fa20519)" d="M 374.974282 235.436635 
L 389.657852 215.69337 
" style="fill:none;stroke:#000000;"/>
    <path clip-path="url(#paa8fa20519)" d="M 374.974282 235.436635 
L 398.672884 194.479833 
" style="fill:none;stroke:#000000;"/>
    <path clip-path="url(#paa8fa20519)" d="M 389.657852 215.69337 
L 398.672884 194.479833 
" style="fill:none;stroke:#000000;"/>
   </g>
   <g id="PathCollection_1">
    <defs>
     <path d="M 0 8.660254 
C 2.296726 8.660254 4.499694 7.747755 6.123724 6.123724 
C 7.747755 4.499694 8.660254 2.296726 8.660254 0 
C 8.660254 -2.296726 7.747755 -4.499694 6.123724 -6.123724 
C 4.499694 -7.747755 2.296726 -8.660254 0 -8.660254 
C -2.296726 -8.660254 -4.499694 -7.747755 -6.123724 -6.123724 
C -7.747755 -4.499694 -8.660254 -2.296726 -8.660254 0 
C -8.660254 2.296726 -7.747755 4.499694 -6.123724 6.123724 
C -4.499694 7.747755 -2.296726 8.660254 0 8.660254 
z
" id="md9f8a16f88" style="stroke:#1f78b4;stroke-width:0.5;"/>
    </defs>
    <g clip-path="url(#paa8fa20519)">
     <use style="fill:#1f78b4;stroke:#1f78b4;stroke-width:0.5;" x="401.712397" xlink:href="#md9f8a16f88" y="172.518446"/>
     <use style="fill:#1f78b4;stroke:#1f78b4;stroke-width:0.5;" x="398.672884" xlink:href="#md9f8a16f88" y="150.557053"/>
     <use style="fill:#1f78b4;stroke:#1f78b4;stroke-width:0.5;" x="389.657852" xlink:href="#md9f8a16f88" y="129.343526"/>
     <use style="fill:#1f78b4;stroke:#1f78b4;stroke-width:0.5;" x="374.974293" xlink:href="#md9f8a16f88" y="109.600272"/>
     <use style="fill:#1f78b4;stroke:#1f78b4;stroke-width:0.5;" x="355.122251" xlink:href="#md9f8a16f88" y="91.999621"/>
     <use style="fill:#1f78b4;stroke:#1f78b4;stroke-width:0.5;" x="330.777759" xlink:href="#md9f8a16f88" y="77.140941"/>
     <use style="fill:#1f78b4;stroke:#1f78b4;stroke-width:0.5;" x="302.76982" xlink:href="#md9f8a16f88" y="65.530224"/>
     <use style="fill:#1f78b4;stroke:#1f78b4;stroke-width:0.5;" x="272.052235" xlink:href="#md9f8a16f88" y="57.562864"/>
     <use style="fill:#1f78b4;stroke:#1f78b4;stroke-width:0.5;" x="239.671048" xlink:href="#md9f8a16f88" y="53.510186"/>
     <use style="fill:#1f78b4;stroke:#1f78b4;stroke-width:0.5;" x="206.728959" xlink:href="#md9f8a16f88" y="53.510186"/>
     <use style="fill:#1f78b4;stroke:#1f78b4;stroke-width:0.5;" x="174.34777" xlink:href="#md9f8a16f88" y="57.562864"/>
     <use style="fill:#1f78b4;stroke:#1f78b4;stroke-width:0.5;" x="143.630185" xlink:href="#md9f8a16f88" y="65.530224"/>
     <use style="fill:#1f78b4;stroke:#1f78b4;stroke-width:0.5;" x="115.622241" xlink:href="#md9f8a16f88" y="77.140941"/>
     <use style="fill:#1f78b4;stroke:#1f78b4;stroke-width:0.5;" x="91.27776" xlink:href="#md9f8a16f88" y="91.999614"/>
     <use style="fill:#1f78b4;stroke:#1f78b4;stroke-width:0.5;" x="71.425696" xlink:href="#md9f8a16f88" y="109.600272"/>
     <use style="fill:#1f78b4;stroke:#1f78b4;stroke-width:0.5;" x="56.742158" xlink:href="#md9f8a16f88" y="129.343512"/>
     <use style="fill:#1f78b4;stroke:#1f78b4;stroke-width:0.5;" x="47.727116" xlink:href="#md9f8a16f88" y="150.557051"/>
     <use style="fill:#1f78b4;stroke:#1f78b4;stroke-width:0.5;" x="44.687603" xlink:href="#md9f8a16f88" y="172.518457"/>
     <use style="fill:#1f78b4;stroke:#1f78b4;stroke-width:0.5;" x="47.727116" xlink:href="#md9f8a16f88" y="194.479835"/>
     <use style="fill:#1f78b4;stroke:#1f78b4;stroke-width:0.5;" x="56.742148" xlink:href="#md9f8a16f88" y="215.693374"/>
     <use style="fill:#1f78b4;stroke:#1f78b4;stroke-width:0.5;" x="71.425696" xlink:href="#md9f8a16f88" y="235.436614"/>
     <use style="fill:#1f78b4;stroke:#1f78b4;stroke-width:0.5;" x="91.277749" xlink:href="#md9f8a16f88" y="253.037279"/>
     <use style="fill:#1f78b4;stroke:#1f78b4;stroke-width:0.5;" x="115.62223" xlink:href="#md9f8a16f88" y="267.895945"/>
     <use style="fill:#1f78b4;stroke:#1f78b4;stroke-width:0.5;" x="143.630174" xlink:href="#md9f8a16f88" y="279.506669"/>
     <use style="fill:#1f78b4;stroke:#1f78b4;stroke-width:0.5;" x="174.347781" xlink:href="#md9f8a16f88" y="287.474029"/>
     <use style="fill:#1f78b4;stroke:#1f78b4;stroke-width:0.5;" x="206.728989" xlink:href="#md9f8a16f88" y="291.526714"/>
     <use style="fill:#1f78b4;stroke:#1f78b4;stroke-width:0.5;" x="239.671015" xlink:href="#md9f8a16f88" y="291.526714"/>
     <use style="fill:#1f78b4;stroke:#1f78b4;stroke-width:0.5;" x="272.052225" xlink:href="#md9f8a16f88" y="287.474029"/>
     <use style="fill:#1f78b4;stroke:#1f78b4;stroke-width:0.5;" x="302.769826" xlink:href="#md9f8a16f88" y="279.506669"/>
     <use style="fill:#1f78b4;stroke:#1f78b4;stroke-width:0.5;" x="330.77777" xlink:href="#md9f8a16f88" y="267.895945"/>
     <use style="fill:#1f78b4;stroke:#1f78b4;stroke-width:0.5;" x="355.122229" xlink:href="#md9f8a16f88" y="253.037293"/>
     <use style="fill:#1f78b4;stroke:#1f78b4;stroke-width:0.5;" x="374.974282" xlink:href="#md9f8a16f88" y="235.436635"/>
     <use style="fill:#1f78b4;stroke:#1f78b4;stroke-width:0.5;" x="389.657852" xlink:href="#md9f8a16f88" y="215.69337"/>
     <use style="fill:#1f78b4;stroke:#1f78b4;stroke-width:0.5;" x="398.672884" xlink:href="#md9f8a16f88" y="194.479833"/>
    </g>
   </g>
   <g id="text_1">
    <g clip-path="url(#paa8fa20519)">
     <!-- 0 -->
     <g transform="translate(397.894897 175.829696)scale(0.12 -0.12)">
      <defs>
       <path d="M 2034 4250 
Q 1547 4250 1301 3770 
Q 1056 3291 1056 2328 
Q 1056 1369 1301 889 
Q 1547 409 2034 409 
Q 2525 409 2770 889 
Q 3016 1369 3016 2328 
Q 3016 3291 2770 3770 
Q 2525 4250 2034 4250 
z
M 2034 4750 
Q 2819 4750 3233 4129 
Q 3647 3509 3647 2328 
Q 3647 1150 3233 529 
Q 2819 -91 2034 -91 
Q 1250 -91 836 529 
Q 422 1150 422 2328 
Q 422 3509 836 4129 
Q 1250 4750 2034 4750 
z
" id="DejaVuSans-30" transform="scale(0.015625)"/>
      </defs>
      <use xlink:href="#DejaVuSans-30"/>
     </g>
    </g>
   </g>
   <g id="text_2">
    <g clip-path="url(#paa8fa20519)">
     <!-- 1 -->
     <g transform="translate(394.855384 153.868303)scale(0.12 -0.12)">
      <defs>
       <path d="M 794 531 
L 1825 531 
L 1825 4091 
L 703 3866 
L 703 4441 
L 1819 4666 
L 2450 4666 
L 2450 531 
L 3481 531 
L 3481 0 
L 794 0 
L 794 531 
z
" id="DejaVuSans-31" transform="scale(0.015625)"/>
      </defs>
      <use xlink:href="#DejaVuSans-31"/>
     </g>
    </g>
   </g>
   <g id="text_3">
    <g clip-path="url(#paa8fa20519)">
     <!-- 2 -->
     <g transform="translate(385.840352 132.654776)scale(0.12 -0.12)">
      <defs>
       <path d="M 1228 531 
L 3431 531 
L 3431 0 
L 469 0 
L 469 531 
Q 828 903 1448 1529 
Q 2069 2156 2228 2338 
Q 2531 2678 2651 2914 
Q 2772 3150 2772 3378 
Q 2772 3750 2511 3984 
Q 2250 4219 1831 4219 
Q 1534 4219 1204 4116 
Q 875 4013 500 3803 
L 500 4441 
Q 881 4594 1212 4672 
Q 1544 4750 1819 4750 
Q 2544 4750 2975 4387 
Q 3406 4025 3406 3419 
Q 3406 3131 3298 2873 
Q 3191 2616 2906 2266 
Q 2828 2175 2409 1742 
Q 1991 1309 1228 531 
z
" id="DejaVuSans-32" transform="scale(0.015625)"/>
      </defs>
      <use xlink:href="#DejaVuSans-32"/>
     </g>
    </g>
   </g>
   <g id="text_4">
    <g clip-path="url(#paa8fa20519)">
     <!-- 3 -->
     <g transform="translate(371.156793 112.911522)scale(0.12 -0.12)">
      <defs>
       <path d="M 2597 2516 
Q 3050 2419 3304 2112 
Q 3559 1806 3559 1356 
Q 3559 666 3084 287 
Q 2609 -91 1734 -91 
Q 1441 -91 1130 -33 
Q 819 25 488 141 
L 488 750 
Q 750 597 1062 519 
Q 1375 441 1716 441 
Q 2309 441 2620 675 
Q 2931 909 2931 1356 
Q 2931 1769 2642 2001 
Q 2353 2234 1838 2234 
L 1294 2234 
L 1294 2753 
L 1863 2753 
Q 2328 2753 2575 2939 
Q 2822 3125 2822 3475 
Q 2822 3834 2567 4026 
Q 2313 4219 1838 4219 
Q 1578 4219 1281 4162 
Q 984 4106 628 3988 
L 628 4550 
Q 988 4650 1302 4700 
Q 1616 4750 1894 4750 
Q 2613 4750 3031 4423 
Q 3450 4097 3450 3541 
Q 3450 3153 3228 2886 
Q 3006 2619 2597 2516 
z
" id="DejaVuSans-33" transform="scale(0.015625)"/>
      </defs>
      <use xlink:href="#DejaVuSans-33"/>
     </g>
    </g>
   </g>
   <g id="text_5">
    <g clip-path="url(#paa8fa20519)">
     <!-- 4 -->
     <g transform="translate(351.304751 95.310871)scale(0.12 -0.12)">
      <defs>
       <path d="M 2419 4116 
L 825 1625 
L 2419 1625 
L 2419 4116 
z
M 2253 4666 
L 3047 4666 
L 3047 1625 
L 3713 1625 
L 3713 1100 
L 3047 1100 
L 3047 0 
L 2419 0 
L 2419 1100 
L 313 1100 
L 313 1709 
L 2253 4666 
z
" id="DejaVuSans-34" transform="scale(0.015625)"/>
      </defs>
      <use xlink:href="#DejaVuSans-34"/>
     </g>
    </g>
   </g>
   <g id="text_6">
    <g clip-path="url(#paa8fa20519)">
     <!-- 5 -->
     <g transform="translate(326.960259 80.452191)scale(0.12 -0.12)">
      <defs>
       <path d="M 691 4666 
L 3169 4666 
L 3169 4134 
L 1269 4134 
L 1269 2991 
Q 1406 3038 1543 3061 
Q 1681 3084 1819 3084 
Q 2600 3084 3056 2656 
Q 3513 2228 3513 1497 
Q 3513 744 3044 326 
Q 2575 -91 1722 -91 
Q 1428 -91 1123 -41 
Q 819 9 494 109 
L 494 744 
Q 775 591 1075 516 
Q 1375 441 1709 441 
Q 2250 441 2565 725 
Q 2881 1009 2881 1497 
Q 2881 1984 2565 2268 
Q 2250 2553 1709 2553 
Q 1456 2553 1204 2497 
Q 953 2441 691 2322 
L 691 4666 
z
" id="DejaVuSans-35" transform="scale(0.015625)"/>
      </defs>
      <use xlink:href="#DejaVuSans-35"/>
     </g>
    </g>
   </g>
   <g id="text_7">
    <g clip-path="url(#paa8fa20519)">
     <!-- 6 -->
     <g transform="translate(298.95232 68.841474)scale(0.12 -0.12)">
      <defs>
       <path d="M 2113 2584 
Q 1688 2584 1439 2293 
Q 1191 2003 1191 1497 
Q 1191 994 1439 701 
Q 1688 409 2113 409 
Q 2538 409 2786 701 
Q 3034 994 3034 1497 
Q 3034 2003 2786 2293 
Q 2538 2584 2113 2584 
z
M 3366 4563 
L 3366 3988 
Q 3128 4100 2886 4159 
Q 2644 4219 2406 4219 
Q 1781 4219 1451 3797 
Q 1122 3375 1075 2522 
Q 1259 2794 1537 2939 
Q 1816 3084 2150 3084 
Q 2853 3084 3261 2657 
Q 3669 2231 3669 1497 
Q 3669 778 3244 343 
Q 2819 -91 2113 -91 
Q 1303 -91 875 529 
Q 447 1150 447 2328 
Q 447 3434 972 4092 
Q 1497 4750 2381 4750 
Q 2619 4750 2861 4703 
Q 3103 4656 3366 4563 
z
" id="DejaVuSans-36" transform="scale(0.015625)"/>
      </defs>
      <use xlink:href="#DejaVuSans-36"/>
     </g>
    </g>
   </g>
   <g id="text_8">
    <g clip-path="url(#paa8fa20519)">
     <!-- 7 -->
     <g transform="translate(268.234735 60.874114)scale(0.12 -0.12)">
      <defs>
       <path d="M 525 4666 
L 3525 4666 
L 3525 4397 
L 1831 0 
L 1172 0 
L 2766 4134 
L 525 4134 
L 525 4666 
z
" id="DejaVuSans-37" transform="scale(0.015625)"/>
      </defs>
      <use xlink:href="#DejaVuSans-37"/>
     </g>
    </g>
   </g>
   <g id="text_9">
    <g clip-path="url(#paa8fa20519)">
     <!-- 8 -->
     <g transform="translate(235.853548 56.821436)scale(0.12 -0.12)">
      <defs>
       <path d="M 2034 2216 
Q 1584 2216 1326 1975 
Q 1069 1734 1069 1313 
Q 1069 891 1326 650 
Q 1584 409 2034 409 
Q 2484 409 2743 651 
Q 3003 894 3003 1313 
Q 3003 1734 2745 1975 
Q 2488 2216 2034 2216 
z
M 1403 2484 
Q 997 2584 770 2862 
Q 544 3141 544 3541 
Q 544 4100 942 4425 
Q 1341 4750 2034 4750 
Q 2731 4750 3128 4425 
Q 3525 4100 3525 3541 
Q 3525 3141 3298 2862 
Q 3072 2584 2669 2484 
Q 3125 2378 3379 2068 
Q 3634 1759 3634 1313 
Q 3634 634 3220 271 
Q 2806 -91 2034 -91 
Q 1263 -91 848 271 
Q 434 634 434 1313 
Q 434 1759 690 2068 
Q 947 2378 1403 2484 
z
M 1172 3481 
Q 1172 3119 1398 2916 
Q 1625 2713 2034 2713 
Q 2441 2713 2670 2916 
Q 2900 3119 2900 3481 
Q 2900 3844 2670 4047 
Q 2441 4250 2034 4250 
Q 1625 4250 1398 4047 
Q 1172 3844 1172 3481 
z
" id="DejaVuSans-38" transform="scale(0.015625)"/>
      </defs>
      <use xlink:href="#DejaVuSans-38"/>
     </g>
    </g>
   </g>
   <g id="text_10">
    <g clip-path="url(#paa8fa20519)">
     <!-- 9 -->
     <g transform="translate(202.911459 56.821436)scale(0.12 -0.12)">
      <defs>
       <path d="M 703 97 
L 703 672 
Q 941 559 1184 500 
Q 1428 441 1663 441 
Q 2288 441 2617 861 
Q 2947 1281 2994 2138 
Q 2813 1869 2534 1725 
Q 2256 1581 1919 1581 
Q 1219 1581 811 2004 
Q 403 2428 403 3163 
Q 403 3881 828 4315 
Q 1253 4750 1959 4750 
Q 2769 4750 3195 4129 
Q 3622 3509 3622 2328 
Q 3622 1225 3098 567 
Q 2575 -91 1691 -91 
Q 1453 -91 1209 -44 
Q 966 3 703 97 
z
M 1959 2075 
Q 2384 2075 2632 2365 
Q 2881 2656 2881 3163 
Q 2881 3666 2632 3958 
Q 2384 4250 1959 4250 
Q 1534 4250 1286 3958 
Q 1038 3666 1038 3163 
Q 1038 2656 1286 2365 
Q 1534 2075 1959 2075 
z
" id="DejaVuSans-39" transform="scale(0.015625)"/>
      </defs>
      <use xlink:href="#DejaVuSans-39"/>
     </g>
    </g>
   </g>
   <g id="text_11">
    <g clip-path="url(#paa8fa20519)">
     <!-- 10 -->
     <g transform="translate(166.71277 60.874114)scale(0.12 -0.12)">
      <use xlink:href="#DejaVuSans-31"/>
      <use x="63.623047" xlink:href="#DejaVuSans-30"/>
     </g>
    </g>
   </g>
   <g id="text_12">
    <g clip-path="url(#paa8fa20519)">
     <!-- 11 -->
     <g transform="translate(135.995185 68.841474)scale(0.12 -0.12)">
      <use xlink:href="#DejaVuSans-31"/>
      <use x="63.623047" xlink:href="#DejaVuSans-31"/>
     </g>
    </g>
   </g>
   <g id="text_13">
    <g clip-path="url(#paa8fa20519)">
     <!-- 12 -->
     <g transform="translate(107.987241 80.452191)scale(0.12 -0.12)">
      <use xlink:href="#DejaVuSans-31"/>
      <use x="63.623047" xlink:href="#DejaVuSans-32"/>
     </g>
    </g>
   </g>
   <g id="text_14">
    <g clip-path="url(#paa8fa20519)">
     <!-- 13 -->
     <g transform="translate(83.64276 95.310864)scale(0.12 -0.12)">
      <use xlink:href="#DejaVuSans-31"/>
      <use x="63.623047" xlink:href="#DejaVuSans-33"/>
     </g>
    </g>
   </g>
   <g id="text_15">
    <g clip-path="url(#paa8fa20519)">
     <!-- 14 -->
     <g transform="translate(63.790696 112.911522)scale(0.12 -0.12)">
      <use xlink:href="#DejaVuSans-31"/>
      <use x="63.623047" xlink:href="#DejaVuSans-34"/>
     </g>
    </g>
   </g>
   <g id="text_16">
    <g clip-path="url(#paa8fa20519)">
     <!-- 15 -->
     <g transform="translate(49.107158 132.654762)scale(0.12 -0.12)">
      <use xlink:href="#DejaVuSans-31"/>
      <use x="63.623047" xlink:href="#DejaVuSans-35"/>
     </g>
    </g>
   </g>
   <g id="text_17">
    <g clip-path="url(#paa8fa20519)">
     <!-- 16 -->
     <g transform="translate(40.092116 153.868301)scale(0.12 -0.12)">
      <use xlink:href="#DejaVuSans-31"/>
      <use x="63.623047" xlink:href="#DejaVuSans-36"/>
     </g>
    </g>
   </g>
   <g id="text_18">
    <g clip-path="url(#paa8fa20519)">
     <!-- 17 -->
     <g transform="translate(37.052603 175.829707)scale(0.12 -0.12)">
      <use xlink:href="#DejaVuSans-31"/>
      <use x="63.623047" xlink:href="#DejaVuSans-37"/>
     </g>
    </g>
   </g>
   <g id="text_19">
    <g clip-path="url(#paa8fa20519)">
     <!-- 18 -->
     <g transform="translate(40.092116 197.791085)scale(0.12 -0.12)">
      <use xlink:href="#DejaVuSans-31"/>
      <use x="63.623047" xlink:href="#DejaVuSans-38"/>
     </g>
    </g>
   </g>
   <g id="text_20">
    <g clip-path="url(#paa8fa20519)">
     <!-- 19 -->
     <g transform="translate(49.107148 219.004624)scale(0.12 -0.12)">
      <use xlink:href="#DejaVuSans-31"/>
      <use x="63.623047" xlink:href="#DejaVuSans-39"/>
     </g>
    </g>
   </g>
   <g id="text_21">
    <g clip-path="url(#paa8fa20519)">
     <!-- 20 -->
     <g transform="translate(63.790696 238.747864)scale(0.12 -0.12)">
      <use xlink:href="#DejaVuSans-32"/>
      <use x="63.623047" xlink:href="#DejaVuSans-30"/>
     </g>
    </g>
   </g>
   <g id="text_22">
    <g clip-path="url(#paa8fa20519)">
     <!-- 21 -->
     <g transform="translate(83.642749 256.348529)scale(0.12 -0.12)">
      <use xlink:href="#DejaVuSans-32"/>
      <use x="63.623047" xlink:href="#DejaVuSans-31"/>
     </g>
    </g>
   </g>
   <g id="text_23">
    <g clip-path="url(#paa8fa20519)">
     <!-- 22 -->
     <g transform="translate(107.98723 271.207195)scale(0.12 -0.12)">
      <use xlink:href="#DejaVuSans-32"/>
      <use x="63.623047" xlink:href="#DejaVuSans-32"/>
     </g>
    </g>
   </g>
   <g id="text_24">
    <g clip-path="url(#paa8fa20519)">
     <!-- 23 -->
     <g transform="translate(135.995174 282.817919)scale(0.12 -0.12)">
      <use xlink:href="#DejaVuSans-32"/>
      <use x="63.623047" xlink:href="#DejaVuSans-33"/>
     </g>
    </g>
   </g>
   <g id="text_25">
    <g clip-path="url(#paa8fa20519)">
     <!-- 24 -->
     <g transform="translate(166.712781 290.785279)scale(0.12 -0.12)">
      <use xlink:href="#DejaVuSans-32"/>
      <use x="63.623047" xlink:href="#DejaVuSans-34"/>
     </g>
    </g>
   </g>
   <g id="text_26">
    <g clip-path="url(#paa8fa20519)">
     <!-- 25 -->
     <g transform="translate(199.093989 294.837964)scale(0.12 -0.12)">
      <use xlink:href="#DejaVuSans-32"/>
      <use x="63.623047" xlink:href="#DejaVuSans-35"/>
     </g>
    </g>
   </g>
   <g id="text_27">
    <g clip-path="url(#paa8fa20519)">
     <!-- 26 -->
     <g transform="translate(232.036015 294.837964)scale(0.12 -0.12)">
      <use xlink:href="#DejaVuSans-32"/>
      <use x="63.623047" xlink:href="#DejaVuSans-36"/>
     </g>
    </g>
   </g>
   <g id="text_28">
    <g clip-path="url(#paa8fa20519)">
     <!-- 27 -->
     <g transform="translate(264.417225 290.785279)scale(0.12 -0.12)">
      <use xlink:href="#DejaVuSans-32"/>
      <use x="63.623047" xlink:href="#DejaVuSans-37"/>
     </g>
    </g>
   </g>
   <g id="text_29">
    <g clip-path="url(#paa8fa20519)">
     <!-- 28 -->
     <g transform="translate(295.134826 282.817919)scale(0.12 -0.12)">
      <use xlink:href="#DejaVuSans-32"/>
      <use x="63.623047" xlink:href="#DejaVuSans-38"/>
     </g>
    </g>
   </g>
   <g id="text_30">
    <g clip-path="url(#paa8fa20519)">
     <!-- 29 -->
     <g transform="translate(323.14277 271.207195)scale(0.12 -0.12)">
      <use xlink:href="#DejaVuSans-32"/>
      <use x="63.623047" xlink:href="#DejaVuSans-39"/>
     </g>
    </g>
   </g>
   <g id="text_31">
    <g clip-path="url(#paa8fa20519)">
     <!-- 30 -->
     <g transform="translate(347.487229 256.348543)scale(0.12 -0.12)">
      <use xlink:href="#DejaVuSans-33"/>
      <use x="63.623047" xlink:href="#DejaVuSans-30"/>
     </g>
    </g>
   </g>
   <g id="text_32">
    <g clip-path="url(#paa8fa20519)">
     <!-- 31 -->
     <g transform="translate(367.339282 238.747885)scale(0.12 -0.12)">
      <use xlink:href="#DejaVuSans-33"/>
      <use x="63.623047" xlink:href="#DejaVuSans-31"/>
     </g>
    </g>
   </g>
   <g id="text_33">
    <g clip-path="url(#paa8fa20519)">
     <!-- 32 -->
     <g transform="translate(382.022852 219.00462)scale(0.12 -0.12)">
      <use xlink:href="#DejaVuSans-33"/>
      <use x="63.623047" xlink:href="#DejaVuSans-32"/>
     </g>
    </g>
   </g>
   <g id="text_34">
    <g clip-path="url(#paa8fa20519)">
     <!-- 33 -->
     <g transform="translate(391.037884 197.791083)scale(0.12 -0.12)">
      <use xlink:href="#DejaVuSans-33"/>
      <use x="63.623047" xlink:href="#DejaVuSans-33"/>
     </g>
    </g>
   </g>
   <g id="text_35">
    <!--  Karate Club Networks -->
    <g transform="translate(110.538675 22.51845)scale(0.2016 -0.2016)">
     <defs>
      <path id="DejaVuSans-20" transform="scale(0.015625)"/>
      <path d="M 628 4666 
L 1259 4666 
L 1259 2694 
L 3353 4666 
L 4166 4666 
L 1850 2491 
L 4331 0 
L 3500 0 
L 1259 2247 
L 1259 0 
L 628 0 
L 628 4666 
z
" id="DejaVuSans-4b" transform="scale(0.015625)"/>
      <path d="M 2194 1759 
Q 1497 1759 1228 1600 
Q 959 1441 959 1056 
Q 959 750 1161 570 
Q 1363 391 1709 391 
Q 2188 391 2477 730 
Q 2766 1069 2766 1631 
L 2766 1759 
L 2194 1759 
z
M 3341 1997 
L 3341 0 
L 2766 0 
L 2766 531 
Q 2569 213 2275 61 
Q 1981 -91 1556 -91 
Q 1019 -91 701 211 
Q 384 513 384 1019 
Q 384 1609 779 1909 
Q 1175 2209 1959 2209 
L 2766 2209 
L 2766 2266 
Q 2766 2663 2505 2880 
Q 2244 3097 1772 3097 
Q 1472 3097 1187 3025 
Q 903 2953 641 2809 
L 641 3341 
Q 956 3463 1253 3523 
Q 1550 3584 1831 3584 
Q 2591 3584 2966 3190 
Q 3341 2797 3341 1997 
z
" id="DejaVuSans-61" transform="scale(0.015625)"/>
      <path d="M 2631 2963 
Q 2534 3019 2420 3045 
Q 2306 3072 2169 3072 
Q 1681 3072 1420 2755 
Q 1159 2438 1159 1844 
L 1159 0 
L 581 0 
L 581 3500 
L 1159 3500 
L 1159 2956 
Q 1341 3275 1631 3429 
Q 1922 3584 2338 3584 
Q 2397 3584 2469 3576 
Q 2541 3569 2628 3553 
L 2631 2963 
z
" id="DejaVuSans-72" transform="scale(0.015625)"/>
      <path d="M 1172 4494 
L 1172 3500 
L 2356 3500 
L 2356 3053 
L 1172 3053 
L 1172 1153 
Q 1172 725 1289 603 
Q 1406 481 1766 481 
L 2356 481 
L 2356 0 
L 1766 0 
Q 1100 0 847 248 
Q 594 497 594 1153 
L 594 3053 
L 172 3053 
L 172 3500 
L 594 3500 
L 594 4494 
L 1172 4494 
z
" id="DejaVuSans-74" transform="scale(0.015625)"/>
      <path d="M 3597 1894 
L 3597 1613 
L 953 1613 
Q 991 1019 1311 708 
Q 1631 397 2203 397 
Q 2534 397 2845 478 
Q 3156 559 3463 722 
L 3463 178 
Q 3153 47 2828 -22 
Q 2503 -91 2169 -91 
Q 1331 -91 842 396 
Q 353 884 353 1716 
Q 353 2575 817 3079 
Q 1281 3584 2069 3584 
Q 2775 3584 3186 3129 
Q 3597 2675 3597 1894 
z
M 3022 2063 
Q 3016 2534 2758 2815 
Q 2500 3097 2075 3097 
Q 1594 3097 1305 2825 
Q 1016 2553 972 2059 
L 3022 2063 
z
" id="DejaVuSans-65" transform="scale(0.015625)"/>
      <path d="M 4122 4306 
L 4122 3641 
Q 3803 3938 3442 4084 
Q 3081 4231 2675 4231 
Q 1875 4231 1450 3742 
Q 1025 3253 1025 2328 
Q 1025 1406 1450 917 
Q 1875 428 2675 428 
Q 3081 428 3442 575 
Q 3803 722 4122 1019 
L 4122 359 
Q 3791 134 3420 21 
Q 3050 -91 2638 -91 
Q 1578 -91 968 557 
Q 359 1206 359 2328 
Q 359 3453 968 4101 
Q 1578 4750 2638 4750 
Q 3056 4750 3426 4639 
Q 3797 4528 4122 4306 
z
" id="DejaVuSans-43" transform="scale(0.015625)"/>
      <path d="M 603 4863 
L 1178 4863 
L 1178 0 
L 603 0 
L 603 4863 
z
" id="DejaVuSans-6c" transform="scale(0.015625)"/>
      <path d="M 544 1381 
L 544 3500 
L 1119 3500 
L 1119 1403 
Q 1119 906 1312 657 
Q 1506 409 1894 409 
Q 2359 409 2629 706 
Q 2900 1003 2900 1516 
L 2900 3500 
L 3475 3500 
L 3475 0 
L 2900 0 
L 2900 538 
Q 2691 219 2414 64 
Q 2138 -91 1772 -91 
Q 1169 -91 856 284 
Q 544 659 544 1381 
z
M 1991 3584 
L 1991 3584 
z
" id="DejaVuSans-75" transform="scale(0.015625)"/>
      <path d="M 3116 1747 
Q 3116 2381 2855 2742 
Q 2594 3103 2138 3103 
Q 1681 3103 1420 2742 
Q 1159 2381 1159 1747 
Q 1159 1113 1420 752 
Q 1681 391 2138 391 
Q 2594 391 2855 752 
Q 3116 1113 3116 1747 
z
M 1159 2969 
Q 1341 3281 1617 3432 
Q 1894 3584 2278 3584 
Q 2916 3584 3314 3078 
Q 3713 2572 3713 1747 
Q 3713 922 3314 415 
Q 2916 -91 2278 -91 
Q 1894 -91 1617 61 
Q 1341 213 1159 525 
L 1159 0 
L 581 0 
L 581 4863 
L 1159 4863 
L 1159 2969 
z
" id="DejaVuSans-62" transform="scale(0.015625)"/>
      <path d="M 628 4666 
L 1478 4666 
L 3547 763 
L 3547 4666 
L 4159 4666 
L 4159 0 
L 3309 0 
L 1241 3903 
L 1241 0 
L 628 0 
L 628 4666 
z
" id="DejaVuSans-4e" transform="scale(0.015625)"/>
      <path d="M 269 3500 
L 844 3500 
L 1563 769 
L 2278 3500 
L 2956 3500 
L 3675 769 
L 4391 3500 
L 4966 3500 
L 4050 0 
L 3372 0 
L 2619 2869 
L 1863 0 
L 1184 0 
L 269 3500 
z
" id="DejaVuSans-77" transform="scale(0.015625)"/>
      <path d="M 1959 3097 
Q 1497 3097 1228 2736 
Q 959 2375 959 1747 
Q 959 1119 1226 758 
Q 1494 397 1959 397 
Q 2419 397 2687 759 
Q 2956 1122 2956 1747 
Q 2956 2369 2687 2733 
Q 2419 3097 1959 3097 
z
M 1959 3584 
Q 2709 3584 3137 3096 
Q 3566 2609 3566 1747 
Q 3566 888 3137 398 
Q 2709 -91 1959 -91 
Q 1206 -91 779 398 
Q 353 888 353 1747 
Q 353 2609 779 3096 
Q 1206 3584 1959 3584 
z
" id="DejaVuSans-6f" transform="scale(0.015625)"/>
      <path d="M 581 4863 
L 1159 4863 
L 1159 1991 
L 2875 3500 
L 3609 3500 
L 1753 1863 
L 3688 0 
L 2938 0 
L 1159 1709 
L 1159 0 
L 581 0 
L 581 4863 
z
" id="DejaVuSans-6b" transform="scale(0.015625)"/>
      <path d="M 2834 3397 
L 2834 2853 
Q 2591 2978 2328 3040 
Q 2066 3103 1784 3103 
Q 1356 3103 1142 2972 
Q 928 2841 928 2578 
Q 928 2378 1081 2264 
Q 1234 2150 1697 2047 
L 1894 2003 
Q 2506 1872 2764 1633 
Q 3022 1394 3022 966 
Q 3022 478 2636 193 
Q 2250 -91 1575 -91 
Q 1294 -91 989 -36 
Q 684 19 347 128 
L 347 722 
Q 666 556 975 473 
Q 1284 391 1588 391 
Q 1994 391 2212 530 
Q 2431 669 2431 922 
Q 2431 1156 2273 1281 
Q 2116 1406 1581 1522 
L 1381 1569 
Q 847 1681 609 1914 
Q 372 2147 372 2553 
Q 372 3047 722 3315 
Q 1072 3584 1716 3584 
Q 2034 3584 2315 3537 
Q 2597 3491 2834 3397 
z
" id="DejaVuSans-73" transform="scale(0.015625)"/>
     </defs>
     <use xlink:href="#DejaVuSans-20"/>
     <use x="31.787109" xlink:href="#DejaVuSans-4b"/>
     <use x="95.613281" xlink:href="#DejaVuSans-61"/>
     <use x="156.892578" xlink:href="#DejaVuSans-72"/>
     <use x="198.005859" xlink:href="#DejaVuSans-61"/>
     <use x="259.285156" xlink:href="#DejaVuSans-74"/>
     <use x="298.494141" xlink:href="#DejaVuSans-65"/>
     <use x="360.017578" xlink:href="#DejaVuSans-20"/>
     <use x="391.804688" xlink:href="#DejaVuSans-43"/>
     <use x="461.628906" xlink:href="#DejaVuSans-6c"/>
     <use x="489.412109" xlink:href="#DejaVuSans-75"/>
     <use x="552.791016" xlink:href="#DejaVuSans-62"/>
     <use x="616.267578" xlink:href="#DejaVuSans-20"/>
     <use x="648.054688" xlink:href="#DejaVuSans-4e"/>
     <use x="722.859375" xlink:href="#DejaVuSans-65"/>
     <use x="784.382812" xlink:href="#DejaVuSans-74"/>
     <use x="823.591797" xlink:href="#DejaVuSans-77"/>
     <use x="905.378906" xlink:href="#DejaVuSans-6f"/>
     <use x="966.560547" xlink:href="#DejaVuSans-72"/>
     <use x="1007.673828" xlink:href="#DejaVuSans-6b"/>
     <use x="1065.583984" xlink:href="#DejaVuSans-73"/>
    </g>
   </g>
  </g>
 </g>
 <defs>
  <clipPath id="paa8fa20519">
   <rect height="288" width="432" x="7.2" y="28.51845"/>
  </clipPath>
 </defs>
</svg>
